HIERARCHY
ROOT Root
{
  OFFSET 0.0 0.0 0.0
  CHANNELS 6 Xposition Yposition Zposition Zrotation Yrotation Xrotation
  JOINT Hips
  {
    OFFSET 0.0 100.0 0.0
    CHANNELS 6 Xposition Yposition Zposition Zrotation Yrotation Xrotation
    JOINT Spine1
    {
      OFFSET 5.003913 -0.037094 -0.013727
      CHANNELS 3 Zrotation Yrotation Xrotation
      JOINT Spine2
      {
        OFFSET 7.125363 -1e-06 0.0
        CHANNELS 3 Zrotation Yrotation Xrotation
        JOINT Chest
        {
          OFFSET 7.594027 1e-06 0.0
          CHANNELS 3 Zrotation Yrotation Xrotation
          JOINT Neck1
          {
            OFFSET 26.313086 -0.460272 -0.181672
            CHANNELS 3 Zrotation Yrotation Xrotation
            JOINT Neck2
            {
              OFFSET 8.045911 0.0 0.0
              CHANNELS 3 Zrotation Yrotation Xrotation
              JOINT Head
              {
                OFFSET 6.432774 0.0 0.0
                CHANNELS 3 Zrotation Yrotation Xrotation
                JOINT HeadEnd
                {
                  OFFSET 16.169773 0.06451 0.00362
                  CHANNELS 3 Zrotation Yrotation Xrotation
                }
                JOINT Jaw
                {
                  OFFSET 0.108741 3.12938 0.002639
                  CHANNELS 3 Zrotation Yrotation Xrotation
                }
                JOINT LeftEye
                {
                  OFFSET 4.45173 8.166359 3.206392
                  CHANNELS 3 Zrotation Yrotation Xrotation
                }
                JOINT RightEye
                {
                  OFFSET 4.436895 8.135758 -3.222429
                  CHANNELS 3 Zrotation Yrotation Xrotation
                }
              }
            }
          }
          JOINT LeftShoulder
          {
            OFFSET 23.218927 5.195579 1.621656
            CHANNELS 3 Zrotation Yrotation Xrotation
            JOINT LeftArm
            {
              OFFSET 15.902118 2e-06 -2e-06
              CHANNELS 3 Zrotation Yrotation Xrotation
              JOINT LeftForeArm
              {
                OFFSET 28.739307 0.0 -1e-06
                CHANNELS 3 Zrotation Yrotation Xrotation
                JOINT LeftHand
                {
                  OFFSET 27.093981 -4e-06 0.0
                  CHANNELS 3 Zrotation Yrotation Xrotation
                  JOINT LeftHandThumb1
                  {
                    OFFSET 2.276781 3.380274 0.83384
                    CHANNELS 3 Zrotation Yrotation Xrotation
                    JOINT LeftHandThumb2
                    {
                      OFFSET 4.705309 -1e-06 -1e-06
                      CHANNELS 3 Zrotation Yrotation Xrotation
                      JOINT LeftHandThumb3
                      {
                        OFFSET 2.798515 0.0 3e-06
                        CHANNELS 3 Zrotation Yrotation Xrotation
                        JOINT LeftHandThumbEnd
                        {
                          OFFSET 3.180793 4e-06 -4e-06
                          CHANNELS 3 Zrotation Yrotation Xrotation
                        }
                      }
                    }
                  }
                  JOINT LeftHandIndex1
                  {
                    OFFSET 3.247786 2.352677 0.137192
                    CHANNELS 3 Zrotation Yrotation Xrotation
                    JOINT LeftHandIndex2
                    {
                      OFFSET 6.367095 1e-06 0.0
                      CHANNELS 3 Zrotation Yrotation Xrotation
                      JOINT LeftHandIndex3
                      {
                        OFFSET 3.662364 0.0 0.0
                        CHANNELS 3 Zrotation Yrotation Xrotation
                        JOINT LeftHandIndex4
                        {
                          OFFSET 2.329242 4e-06 -4e-06
                          CHANNELS 3 Zrotation Yrotation Xrotation
                          JOINT LeftHandIndexEnd
                          {
                            OFFSET 2.767823 1e-06 0.0
                            CHANNELS 3 Zrotation Yrotation Xrotation
                          }
                        }
                      }
                    }
                  }
                  JOINT LeftHandMiddle1
                  {
                    OFFSET 3.163612 0.945023 -0.406112
                    CHANNELS 3 Zrotation Yrotation Xrotation
                    JOINT LeftHandMiddle2
                    {
                      OFFSET 6.276789 3e-06 0.0
                      CHANNELS 3 Zrotation Yrotation Xrotation
                      JOINT LeftHandMiddle3
                      {
                        OFFSET 4.35652 -1e-06 4e-06
                        CHANNELS 3 Zrotation Yrotation Xrotation
                        JOINT LeftHandMiddle4
                        {
                          OFFSET 2.996877 0.0 8e-06
                          CHANNELS 3 Zrotation Yrotation Xrotation
                          JOINT LeftHandMiddleEnd
                          {
                            OFFSET 2.323256 3e-06 -4e-06
                            CHANNELS 3 Zrotation Yrotation Xrotation
                          }
                        }
                      }
                    }
                  }
                  JOINT LeftHandRing1
                  {
                    OFFSET 2.882606 -0.309162 0.107445
                    CHANNELS 3 Zrotation Yrotation Xrotation
                    JOINT LeftHandRing2
                    {
                      OFFSET 6.033198 0.0 4e-06
                      CHANNELS 3 Zrotation Yrotation Xrotation
                      JOINT LeftHandRing3
                      {
                        OFFSET 4.350578 3e-06 0.0
                        CHANNELS 3 Zrotation Yrotation Xrotation
                        JOINT LeftHandRing4
                        {
                          OFFSET 2.651321 2e-06 -7e-06
                          CHANNELS 3 Zrotation Yrotation Xrotation
                          JOINT LeftHandRingEnd
                          {
                            OFFSET 1.937663 1e-06 -4e-06
                            CHANNELS 3 Zrotation Yrotation Xrotation
                          }
                        }
                      }
                    }
                  }
                  JOINT LeftHandPinky1
                  {
                    OFFSET 2.865315 -1.525436 0.575687
                    CHANNELS 3 Zrotation Yrotation Xrotation
                    JOINT LeftHandPinky2
                    {
                      OFFSET 5.54936 1e-06 -8e-06
                      CHANNELS 3 Zrotation Yrotation Xrotation
                      JOINT LeftHandPinky3
                      {
                        OFFSET 3.070974 0.0 -4e-06
                        CHANNELS 3 Zrotation Yrotation Xrotation
                        JOINT LeftHandPinky4
                        {
                          OFFSET 1.549672 1e-06 0.0
                          CHANNELS 3 Zrotation Yrotation Xrotation
                          JOINT LeftHandPinkyEnd
                          {
                            OFFSET 1.952123 0.0 0.0
                            CHANNELS 3 Zrotation Yrotation Xrotation
                          }
                        }
                      }
                    }
                  }
                }
              }
            }
          }
          JOINT RightShoulder
          {
            OFFSET 23.161716 5.296122 -1.380114
            CHANNELS 3 Zrotation Yrotation Xrotation
            JOINT RightArm
            {
              OFFSET -16.027195 -2e-06 1.1e-05
              CHANNELS 3 Zrotation Yrotation Xrotation
              JOINT RightForeArm
              {
                OFFSET -28.736639 4e-06 2e-06
                CHANNELS 3 Zrotation Yrotation Xrotation
                JOINT RightHand
                {
                  OFFSET -27.133619 6e-06 0.0
                  CHANNELS 3 Zrotation Yrotation Xrotation
                  JOINT RightHandThumb1
                  {
                    OFFSET -2.274328 -3.351035 -0.83067
                    CHANNELS 3 Zrotation Yrotation Xrotation
                    JOINT RightHandThumb2
                    {
                      OFFSET -4.703594 -3e-06 2e-06
                      CHANNELS 3 Zrotation Yrotation Xrotation
                      JOINT RightHandThumb3
                      {
                        OFFSET -2.794935 -4e-06 -3e-06
                        CHANNELS 3 Zrotation Yrotation Xrotation
                        JOINT RightHandThumbEnd
                        {
                          OFFSET -3.183852 4e-06 1e-06
                          CHANNELS 3 Zrotation Yrotation Xrotation
                        }
                      }
                    }
                  }
                  JOINT RightHandIndex1
                  {
                    OFFSET -3.253496 -2.33755 -0.127667
                    CHANNELS 3 Zrotation Yrotation Xrotation
                    JOINT RightHandIndex2
                    {
                      OFFSET -6.344434 0.0 0.0
                      CHANNELS 3 Zrotation Yrotation Xrotation
                      JOINT RightHandIndex3
                      {
                        OFFSET -3.654871 0.0 -8e-06
                        CHANNELS 3 Zrotation Yrotation Xrotation
                        JOINT RightHandIndex4
                        {
                          OFFSET -2.327586 -1e-06 0.0
                          CHANNELS 3 Zrotation Yrotation Xrotation
                          JOINT RightHandIndexEnd
                          {
                            OFFSET -2.770001 3e-06 8e-06
                            CHANNELS 3 Zrotation Yrotation Xrotation
                          }
                        }
                      }
                    }
                  }
                  JOINT RightHandMiddle1
                  {
                    OFFSET -3.168223 -0.944764 0.411762
                    CHANNELS 3 Zrotation Yrotation Xrotation
                    JOINT RightHandMiddle2
                    {
                      OFFSET -6.266691 -1e-06 -4e-06
                      CHANNELS 3 Zrotation Yrotation Xrotation
                      JOINT RightHandMiddle3
                      {
                        OFFSET -4.348901 0.0 0.0
                        CHANNELS 3 Zrotation Yrotation Xrotation
                        JOINT RightHandMiddle4
                        {
                          OFFSET -3.00024 2e-06 -4e-06
                          CHANNELS 3 Zrotation Yrotation Xrotation
                          JOINT RightHandMiddleEnd
                          {
                            OFFSET -2.321477 -4e-06 -4e-06
                            CHANNELS 3 Zrotation Yrotation Xrotation
                          }
                        }
                      }
                    }
                  }
                  JOINT RightHandRing1
                  {
                    OFFSET -2.885654 0.293261 -0.119232
                    CHANNELS 3 Zrotation Yrotation Xrotation
                    JOINT RightHandRing2
                    {
                      OFFSET -6.032835 -1e-06 -4e-06
                      CHANNELS 3 Zrotation Yrotation Xrotation
                      JOINT RightHandRing3
                      {
                        OFFSET -4.33881 0.0 -4e-06
                        CHANNELS 3 Zrotation Yrotation Xrotation
                        JOINT RightHandRing4
                        {
                          OFFSET -2.654903 -4e-06 -4e-06
                          CHANNELS 3 Zrotation Yrotation Xrotation
                          JOINT RightHandRingEnd
                          {
                            OFFSET -1.935122 0.0 4e-06
                            CHANNELS 3 Zrotation Yrotation Xrotation
                          }
                        }
                      }
                    }
                  }
                  JOINT RightHandPinky1
                  {
                    OFFSET -2.866241 1.503904 -0.60527
                    CHANNELS 3 Zrotation Yrotation Xrotation
                    JOINT RightHandPinky2
                    {
                      OFFSET -5.553177 -2e-06 0.0
                      CHANNELS 3 Zrotation Yrotation Xrotation
                      JOINT RightHandPinky3
                      {
                        OFFSET -3.062664 -1e-06 -4e-06
                        CHANNELS 3 Zrotation Yrotation Xrotation
                        JOINT RightHandPinky4
                        {
                          OFFSET -1.546529 2e-06 4e-06
                          CHANNELS 3 Zrotation Yrotation Xrotation
                          JOINT RightHandPinkyEnd
                          {
                            OFFSET -1.952341 0.0 -4e-06
                            CHANNELS 3 Zrotation Yrotation Xrotation
                          }
                        }
                      }
                    }
                  }
                }
              }
            }
          }
        }
      }
    }
    JOINT LeftLeg
    {
      OFFSET -8.443107 2.567604 10.043214
      CHANNELS 3 Zrotation Yrotation Xrotation
      JOINT LeftShin
      {
        OFFSET 43.229198 1e-06 -1e-06
        CHANNELS 3 Zrotation Yrotation Xrotation
        JOINT LeftFoot
        {
          OFFSET 42.298611 1e-06 1e-06
          CHANNELS 3 Zrotation Yrotation Xrotation
          JOINT LeftToeBase
          {
            OFFSET 14.165858 1e-06 0.0
            CHANNELS 3 Zrotation Yrotation Xrotation
            JOINT LeftToeEnd
            {
              OFFSET 6.7141 -0.234461 0.0
              CHANNELS 3 Zrotation Yrotation Xrotation
            }
          }
        }
      }
    }
    JOINT RightLeg
    {
      OFFSET -8.303923 2.592729 -10.047278
      CHANNELS 3 Zrotation Yrotation Xrotation
      JOINT RightShin
      {
        OFFSET -43.369682 0.0 1e-06
        CHANNELS 3 Zrotation Yrotation Xrotation
        JOINT RightFoot
        {
          OFFSET -42.260784 4e-06 2e-06
          CHANNELS 3 Zrotation Yrotation Xrotation
          JOINT RightToeBase
          {
            OFFSET -14.222245 -2e-06 -1e-06
            CHANNELS 3 Zrotation Yrotation Xrotation
            JOINT RightToeEnd
            {
              OFFSET -6.660062 0.232574 -2e-06
              CHANNELS 3 Zrotation Yrotation Xrotation
            }
          }
        }
      }
    }
  }
}
MOTION
Frames: 4
Frame Time: 0.03333333333333333
0.0 0.0 0.0 0.0 -0.0 0.0 -0.92358 99.644157 6.079799 90.622971 3.289127 90.115967 -3.221288 0.014861 -0.202727 -11.95399 -0.837055 -0.197439 18.017523 0.353087 -2.229225 23.668367 5.341868 2.745288 -2.549052 -0.580079 0.09667 -30.96484 0.630679 -0.794434 6e-06 -0.0 0.0 0.072816 0.000356 0.014096 0.060142 0.007951 0.009741 0.041159 -0.002651 0.024874 -124.607063 -76.298683 138.591568 36.577007 -56.887894 14.225511 27.481943 0.082734 -0.101682 0.499758 0.557937 2.673124 17.636637 -26.322733 52.411186 -19.466665 -14.395598 29.410389 -1e-06 -8.774822 -2e-06 16.259155 -18.221344 6.048997 -0.609776 -1.795654 -3.88933 -4.807089 -11.046811 -2.93785 5e-06 -20.976019 -2e-06 -5.019973 -25.03356 -4.031878 6e-06 -0.0 -2e-06 -10.634533 -5.686971 -3.565589 10.573275 -17.922953 -3.1139 4e-06 -13.821211 -2e-06 -0.501774 -31.181507 -4.027017 -11.684543 -59.730423 7.568027 -13.982714 -7.150198 -2.875039 13.772731 -8.401495 -3.21824 0.347737 -34.211555 0.771651 -0.963029 -17.733372 2.62102 -1e-06 1e-06 0.0 -17.346422 -20.095221 -4.201779 21.757557 -1.638376 3.866426 1e-06 -6.338823 0.0 -1.697586 -22.591745 -6.194006 -1e-06 -3e-06 -1e-06 26.021917 -65.71212 171.911621 37.674824 -46.034138 12.828593 30.25168 -0.20365 0.039518 -3.859077 1.469999 5.643579 22.182119 -20.375891 49.933308 -16.701817 -16.743528 28.47653 -4e-06 -12.690603 -2e-06 16.157637 -17.674406 2.587492 -0.105919 -1.513856 -4.275885 -5.039042 -5.612873 -2.953553 4e-06 -11.020525 -3e-06 -6.111297 -15.895334 -3.840471 1e-06 -0.0 1e-06 -10.283373 -5.680289 -4.341839 11.028296 -11.302406 -2.372633 -1.384269 -14.238583 -6.320121 -0.625439 -26.924194 -3.827599 -4.258634 -49.786747 -3.823864 -13.708527 -7.363479 -3.720937 18.141153 -14.052739 -3.242676 7e-06 -18.787271 -4e-06 -0.429712 -8.456046 2.555502 2e-06 -1e-06 -2e-06 -15.923538 -20.094486 -5.473587 30.419214 -7.190828 1.735928 2e-06 -8.162927 -3e-06 -1.861901 -22.861473 -6.167942 -1e-06 -3e-06 -1e-06 -179.721527 -4.717684 -9.179865 14.409684 -0.070343 0.013346 -79.748161 1.077335 -5.337781 -6.075994 1.562697 2.119483 -0.999999 -0.0 -0.0 -0.766629 -4.640898 -13.873266 17.790277 0.027604 -0.091751 -81.971313 0.955231 -3.755961 -6.055621 0.647882 1.646921 -1.000002 -0.0 0.0 
0.0 0.0 0.0 0.0 -0.0 0.0 -0.940688 99.654564 6.127648 90.626434 3.266475 90.202271 -3.250263 -0.017087 -0.217587 -11.947551 -0.822764 -0.154488 17.995932 0.359006 -2.300032 23.597984 5.393065 2.732222 -2.535349 -0.58745 0.093317 -30.90093 0.618981 -0.816036 6e-06 -0.0 0.0 0.070352 -0.003341 0.031012 0.062343 0.002764 0.027317 0.043885 -0.004728 0.040214 -124.456703 -76.346519 138.415771 36.7272 -56.899837 13.996118 27.375633 0.043319 -0.161798 0.475359 0.48173 2.781632 17.636633 -26.322725 52.411182 -19.466661 -14.395596 29.410389 0.0 -8.774822 -1e-06 16.284475 -18.176104 6.002959 -0.609777 -1.795654 -3.889328 -4.807091 -11.046813 -2.93785 3e-06 -20.976019 -4e-06 -5.019973 -25.03356 -4.03188 5e-06 1e-06 1e-06 -10.634535 -5.686972 -3.565588 10.573271 -17.922951 -3.113898 3e-06 -13.821209 -1e-06 -0.501776 -31.181505 -4.027017 -11.623679 -59.731297 7.575408 -13.982716 -7.150199 -2.87504 13.772731 -8.401491 -3.218242 0.347733 -34.211555 0.771652 -0.963028 -17.733372 2.621018 -2e-06 1e-06 -0.0 -17.346422 -20.095221 -4.201783 21.757559 -1.638375 3.866432 1e-06 -6.338824 -0.0 -1.697592 -22.591747 -6.194006 -0.0 -3e-06 -2e-06 25.953398 -65.643761 172.038681 37.633743 -45.977966 12.668278 30.024956 -0.219667 0.015463 -3.752126 1.299798 5.620808 22.182117 -20.375891 49.933308 -16.701809 -16.743528 28.476522 -3e-06 -12.690601 -2e-06 16.158653 -17.700157 2.586104 -0.105919 -1.513854 -4.275882 -5.039042 -5.612873 -2.953553 4e-06 -11.020523 -1e-06 -6.1113 -15.89533 -3.84047 -0.0 -1e-06 1e-06 -10.283369 -5.680286 -4.341835 11.028292 -11.302402 -2.372633 -1.384267 -14.238577 -6.32012 -0.625441 -26.924183 -3.827598 -4.283957 -49.92617 -3.793576 -13.708527 -7.363477 -3.720936 18.141146 -14.052734 -3.242674 5e-06 -18.787266 -3e-06 -0.429714 -8.456041 2.555505 2e-06 -2e-06 -0.0 -15.923538 -20.094482 -5.473579 30.419207 -7.190823 1.735929 2e-06 -8.162922 -2e-06 -1.861903 -22.861467 -6.167941 -1e-06 -3e-06 -1e-06 -179.6633 -4.715033 -9.111356 14.27209 -0.067126 0.056368 -79.706985 1.12516 -5.439409 -6.090164 1.584103 2.127847 -0.999999 -0.0 -0.0 -0.688237 -4.610006 -13.902492 17.671175 0.021306 -0.089335 -81.952171 0.89083 -3.75488 -6.067485 0.632981 1.645341 -1.000002 -1e-06 0.0 
0.0 0.0 0.0 0.0 -0.0 0.0 -0.949085 99.657127 6.161588 90.645195 3.255662 90.283112 -3.272585 -0.055415 -0.226231 -11.948278 -0.82653 -0.144411 18.011028 0.357204 -2.336252 23.557957 5.395134 2.736308 -2.561733 -0.59668 0.029246 -30.807661 0.565593 -0.86494 6e-06 0.0 0.0 0.065624 -0.005466 0.0343 0.047665 -0.00452 0.031368 0.031269 -0.001862 0.041826 -124.298363 -76.375397 138.240845 36.853859 -56.891769 13.867894 27.326899 0.037503 -0.1952 0.423848 0.419603 2.669894 17.636627 -26.322725 52.411179 -19.466654 -14.395596 29.410385 -0.0 -8.774821 -0.0 16.308062 -18.177788 5.973585 -0.609779 -1.795656 -3.889328 -4.807087 -11.046807 -2.93785 2e-06 -20.976011 -2e-06 -5.019973 -25.033556 -4.031878 4e-06 1e-06 1e-06 -10.634533 -5.686969 -3.565586 10.57327 -17.922947 -3.113897 3e-06 -13.821205 -1e-06 -0.501778 -31.181498 -4.027013 -11.629295 -59.714909 7.541669 -13.982713 -7.150198 -2.875044 13.772728 -8.401489 -3.218239 0.347731 -34.211544 0.771653 -0.963031 -17.733368 2.621021 -0.0 1e-06 -1e-06 -17.346418 -20.095211 -4.201777 21.757555 -1.638374 3.866429 1e-06 -6.338822 1e-06 -1.69759 -22.591742 -6.194005 -1e-06 -2e-06 -2e-06 25.823032 -65.601471 172.217438 37.537262 -45.94136 12.460967 29.875145 -0.226331 -0.007135 -3.715565 1.218723 5.483018 22.182114 -20.375895 49.933319 -16.701813 -16.74353 28.47653 -4e-06 -12.6906 -2e-06 16.165722 -17.680452 2.593071 -0.105917 -1.513855 -4.275879 -5.039042 -5.612872 -2.953558 5e-06 -11.020523 -0.0 -6.111298 -15.89533 -3.840471 -0.0 -0.0 1e-06 -10.283371 -5.680288 -4.341838 11.028296 -11.302406 -2.372634 -1.384267 -14.23858 -6.320124 -0.62544 -26.924187 -3.827599 -4.295476 -50.003864 -3.786973 -13.708527 -7.363475 -3.720939 18.141151 -14.052739 -3.242673 9e-06 -18.78727 -3e-06 -0.429711 -8.456045 2.555506 1e-06 -2e-06 -2e-06 -15.923536 -20.094482 -5.473581 30.41921 -7.190826 1.735925 2e-06 -8.162925 -2e-06 -1.861902 -22.861471 -6.167943 -0.0 -4e-06 0.0 -179.63414 -4.692856 -9.045441 14.202736 -0.069331 0.086977 -79.68837 1.137153 -5.467121 -6.060944 1.589117 2.132323 -0.999999 -0.0 -0.0 -0.649422 -4.618438 -13.937331 17.643536 0.022165 -0.089534 -81.969032 0.841674 -3.765919 -6.025371 0.629571 1.644547 -1.000001 -0.0 -0.0 
0.0 0.0 0.0 0.0 -0.0 0.0 -0.951969 99.65464 6.175185 90.671509 3.246162 90.356087 -3.276141 -0.098699 -0.227175 -11.956323 -0.830885 -0.142608 18.020422 0.343195 -2.339902 23.561775 5.334304 2.736343 -2.590112 -0.604248 -0.055397 -30.742132 0.518838 -0.939414 6e-06 -1e-06 0.0 0.061178 -0.006691 0.02878 0.035295 -0.010706 0.026978 0.019794 0.001659 0.034551 -124.261932 -76.370888 138.196091 36.962955 -56.848587 13.845811 27.300144 0.050279 -0.203305 0.376136 0.446474 2.5525 17.636635 -26.322744 52.411213 -19.466665 -14.3956 29.410395 -2e-06 -8.774822 -0.0 16.287348 -18.160845 5.967753 -0.609776 -1.795652 -3.889329 -4.80709 -11.046812 -2.937852 5e-06 -20.976019 -2e-06 -5.019972 -25.033562 -4.031878 5e-06 1e-06 1e-06 -10.634535 -5.686969 -3.565589 10.573277 -17.922955 -3.1139 4e-06 -13.821211 -0.0 -0.501776 -31.181505 -4.027012 -11.619659 -59.68248 7.492612 -13.982714 -7.150196 -2.875046 13.772731 -8.401493 -3.218239 0.347736 -34.211555 0.771656 -0.96303 -17.733368 2.621023 -1e-06 -1e-06 -1e-06 -17.346422 -20.095217 -4.201786 21.757561 -1.638377 3.866429 1e-06 -6.338824 -0.0 -1.697587 -22.591749 -6.194005 0.0 -2e-06 -0.0 25.723782 -65.57692 172.35466 37.410049 -45.932518 12.370612 29.777071 -0.178539 -0.012578 -3.723642 1.182393 5.308466 22.182121 -20.375904 49.933327 -16.701817 -16.74353 28.476532 -4e-06 -12.690603 -2e-06 16.163103 -17.643471 2.60948 -0.105919 -1.513856 -4.275878 -5.039044 -5.612874 -2.953558 4e-06 -11.020525 -1e-06 -6.111299 -15.895334 -3.840471 -0.0 0.0 1e-06 -10.283373 -5.680289 -4.341839 11.028297 -11.302406 -2.372634 -1.384269 -14.238585 -6.320123 -0.625442 -26.924194 -3.827595 -4.315031 -50.006073 -3.764321 -13.708527 -7.363477 -3.720942 18.141151 -14.052739 -3.242674 5e-06 -18.78727 -1e-06 -0.429711 -8.456047 2.555505 0.0 -2e-06 -1e-06 -15.923536 -20.094484 -5.473587 30.419218 -7.190826 1.735929 2e-06 -8.162927 -2e-06 -1.861904 -22.861471 -6.167942 1e-06 -5e-06 -1e-06 -179.645691 -4.665339 -8.997439 14.195045 -0.071528 0.100051 -79.684174 1.139278 -5.456404 -6.032618 1.585127 2.131818 -1.0 -0.0 -0.0 -0.656399 -4.648686 -13.97054 17.684141 0.023794 -0.097231 -82.005676 0.812283 -3.793572 -5.993262 0.625815 1.643504 -1.000001 -0.0 0.0 
